{
    "asset" : {
        "generator" : "Khronos glTF Blender I/O v1.5.17",
        "version" : "2.0"
    },
    "scene" : 0,
    "scenes" : [
        {
            "name" : "Scene",
            "nodes" : [
                0,
                1,
                2,
                3,
                4
            ]
        }
    ],
    "nodes" : [
        {
            "name" : "Light",
            "rotation" : [
                0.16907575726509094,
                0.7558803558349609,
                -0.27217137813568115,
                0.570947527885437
            ],
            "translation" : [
                4.076245307922363,
                5.903861999511719,
                -1.0054539442062378
            ]
        },
        {
            "name" : "Camera",
            "rotation" : [
                0.483536034822464,
                0.33687159419059753,
                -0.20870360732078552,
                0.7804827094078064
            ],
            "translation" : [
                7.358891487121582,
                4.958309173583984,
                6.925790786743164
            ]
        },
        {
            "mesh" : 0,
            "name" : "trees",
            "translation" : [
                -1.0946272611618042,
                0,
                -0.02387291193008423
            ]
        },
        {
            "mesh" : 1,
            "name" : "Plane",
            "scale" : [
                5,
                5,
                5
            ]
        },
        {
            "mesh" : 2,
            "name" : "trees.001",
            "rotation" : [
                0,
                0.9240378141403198,
                0,
                0.38230112195014954
            ],
            "translation" : [
                1.5177134275436401,
                0,
                2.259521245956421
            ]
        }
    ],
    "materials" : [
        {
            "doubleSided" : true,
            "name" : "Material.001",
            "pbrMetallicRoughness" : {
                "baseColorFactor" : [
                    0.23955504596233368,
                    0.23955504596233368,
                    0.23955504596233368,
                    1
                ],
                "metallicFactor" : 0,
                "roughnessFactor" : 0.5
            }
        },
        {
            "doubleSided" : true,
            "name" : "Material.002",
            "pbrMetallicRoughness" : {
                "baseColorFactor" : [
                    0.05497022345662117,
                    0.05497022345662117,
                    0.05497022345662117,
                    1
                ],
                "metallicFactor" : 0,
                "roughnessFactor" : 0.5
            }
        },
        {
            "doubleSided" : true,
            "name" : "Material.003",
            "pbrMetallicRoughness" : {
                "baseColorFactor" : [
                    0.23955504596233368,
                    0.23955504596233368,
                    0.23955504596233368,
                    1
                ],
                "metallicFactor" : 0,
                "roughnessFactor" : 0.5
            }
        }
    ],
    "meshes" : [
        {
            "name" : "tree.001",
            "primitives" : [
                {
                    "attributes" : {
                        "POSITION" : 0,
                        "NORMAL" : 1,
                        "TEXCOORD_0" : 2
                    },
                    "indices" : 3,
                    "material" : 0
                }
            ]
        },
        {
            "name" : "Plane",
            "primitives" : [
                {
                    "attributes" : {
                        "POSITION" : 4,
                        "NORMAL" : 5,
                        "TEXCOORD_0" : 6
                    },
                    "indices" : 7,
                    "material" : 1
                }
            ]
        },
        {
            "name" : "tree.012",
            "primitives" : [
                {
                    "attributes" : {
                        "POSITION" : 8,
                        "NORMAL" : 9,
                        "TEXCOORD_0" : 10
                    },
                    "indices" : 11,
                    "material" : 2
                }
            ]
        }
    ],
    "accessors" : [
        {
            "bufferView" : 0,
            "componentType" : 5126,
            "count" : 10155,
            "max" : [
                4.551905632019043,
                8.071940422058105,
                3.1536037921905518
            ],
            "min" : [
                -2.7069480419158936,
                -0.8905037045478821,
                -4.9752349853515625
            ],
            "type" : "VEC3"
        },
        {
            "bufferView" : 1,
            "componentType" : 5126,
            "count" : 10155,
            "type" : "VEC3"
        },
        {
            "bufferView" : 2,
            "componentType" : 5126,
            "count" : 10155,
            "type" : "VEC2"
        },
        {
            "bufferView" : 3,
            "componentType" : 5123,
            "count" : 43038,
            "type" : "SCALAR"
        },
        {
            "bufferView" : 4,
            "componentType" : 5126,
            "count" : 96,
            "max" : [
                1,
                0,
                1
            ],
            "min" : [
                -1,
                0,
                -1
            ],
            "type" : "VEC3"
        },
        {
            "bufferView" : 5,
            "componentType" : 5126,
            "count" : 96,
            "type" : "VEC3"
        },
        {
            "bufferView" : 6,
            "componentType" : 5126,
            "count" : 96,
            "type" : "VEC2"
        },
        {
            "bufferView" : 7,
            "componentType" : 5123,
            "count" : 294,
            "type" : "SCALAR"
        },
        {
            "bufferView" : 8,
            "componentType" : 5126,
            "count" : 13906,
            "max" : [
                4.551905632019043,
                8.071940422058105,
                3.15409517288208
            ],
            "min" : [
                -2.7069480419158936,
                -0.8905037045478821,
                -4.9752349853515625
            ],
            "type" : "VEC3"
        },
        {
            "bufferView" : 9,
            "componentType" : 5126,
            "count" : 13906,
            "type" : "VEC3"
        },
        {
            "bufferView" : 10,
            "componentType" : 5126,
            "count" : 13906,
            "type" : "VEC2"
        },
        {
            "bufferView" : 11,
            "componentType" : 5123,
            "count" : 62103,
            "type" : "SCALAR"
        }
    ],
    "bufferViews" : [
        {
            "buffer" : 0,
            "byteLength" : 121860,
            "byteOffset" : 0
        },
        {
            "buffer" : 0,
            "byteLength" : 121860,
            "byteOffset" : 121860
        },
        {
            "buffer" : 0,
            "byteLength" : 81240,
            "byteOffset" : 243720
        },
        {
            "buffer" : 0,
            "byteLength" : 86076,
            "byteOffset" : 324960
        },
        {
            "buffer" : 0,
            "byteLength" : 1152,
            "byteOffset" : 411036
        },
        {
            "buffer" : 0,
            "byteLength" : 1152,
            "byteOffset" : 412188
        },
        {
            "buffer" : 0,
            "byteLength" : 768,
            "byteOffset" : 413340
        },
        {
            "buffer" : 0,
            "byteLength" : 588,
            "byteOffset" : 414108
        },
        {
            "buffer" : 0,
            "byteLength" : 166872,
            "byteOffset" : 414696
        },
        {
            "buffer" : 0,
            "byteLength" : 166872,
            "byteOffset" : 581568
        },
        {
            "buffer" : 0,
            "byteLength" : 111248,
            "byteOffset" : 748440
        },
        {
            "buffer" : 0,
            "byteLength" : 124206,
            "byteOffset" : 859688
        }
    ],
    "buffers" : [
        {
            "byteLength" : 983896,
            "uri" : "data:application/octet-stream;base64,"
        }
    ]
}
