{
    "asset" : {
        "generator" : "Khronos glTF Blender I/O v1.5.17",
        "version" : "2.0"
    },
    "scene" : 0,
    "scenes" : [
        {
            "name" : "Scene",
            "nodes" : [
                0,
                1,
                2,
                3
            ]
        }
    ],
    "nodes" : [
        {
            "mesh" : 0,
            "name" : "trees",
            "rotation" : [
                0,
                -0.7071068286895752,
                0,
                0.7071068286895752
            ],
            "scale" : [
                1,
                1.1656073331832886,
                1
            ],
            "translation" : [
                0.6686577796936035,
                -2.515652894973755,
                -0.9733598232269287
            ]
        },
        {
            "mesh" : 1,
            "name" : "trees.001",
            "rotation" : [
                0,
                0.3830656409263611,
                0,
                0.9237211346626282
            ],
            "scale" : [
                1,
                1.1656073331832886,
                1
            ],
            "translation" : [
                -1.6147364377975464,
                -2.515652894973755,
                2.363360643386841
            ]
        },
        {
            "mesh" : 2,
            "name" : "trees.003",
            "rotation" : [
                0,
                0.7071068286895752,
                0,
                0.7071068286895752
            ],
            "scale" : [
                1,
                1.1656073331832886,
                1
            ],
            "translation" : [
                -1.6147363185882568,
                -2.515652894973755,
                6.089190483093262
            ]
        },
        {
            "mesh" : 3,
            "name" : "trees.002",
            "rotation" : [
                0,
                0.9237210750579834,
                0,
                -0.38306576013565063
            ],
            "scale" : [
                1,
                1.1656073331832886,
                1
            ],
            "translation" : [
                0.668657660484314,
                -2.515652894973755,
                2.752470016479492
            ]
        }
    ],
    "materials" : [
        {
            "doubleSided" : true,
            "name" : "Material.001",
            "pbrMetallicRoughness" : {
                "baseColorFactor" : [
                    0.02721080742776394,
                    0.02721080742776394,
                    0.02721080742776394,
                    1
                ],
                "metallicFactor" : 0
            }
        },
        {
            "doubleSided" : true,
            "name" : "Material.003",
            "pbrMetallicRoughness" : {
                "baseColorFactor" : [
                    0.011866886168718338,
                    0.023651497438549995,
                    0.010639883577823639,
                    1
                ],
                "metallicFactor" : 0
            }
        },
        {
            "doubleSided" : true,
            "name" : "Material.005",
            "pbrMetallicRoughness" : {
                "baseColorFactor" : [
                    0.02721080742776394,
                    0.02721080742776394,
                    0.02721080742776394,
                    1
                ],
                "metallicFactor" : 0
            }
        },
        {
            "doubleSided" : true,
            "name" : "Material.004",
            "pbrMetallicRoughness" : {
                "baseColorFactor" : [
                    0.011866886168718338,
                    0.023651497438549995,
                    0.010639883577823639,
                    1
                ],
                "metallicFactor" : 0
            }
        }
    ],
    "meshes" : [
        {
            "name" : "tree.001",
            "primitives" : [
                {
                    "attributes" : {
                        "POSITION" : 0,
                        "NORMAL" : 1,
                        "TEXCOORD_0" : 2
                    },
                    "indices" : 3,
                    "material" : 0
                }
            ]
        },
        {
            "name" : "tree.012",
            "primitives" : [
                {
                    "attributes" : {
                        "POSITION" : 4,
                        "NORMAL" : 5,
                        "TEXCOORD_0" : 6
                    },
                    "indices" : 7,
                    "material" : 1
                }
            ]
        },
        {
            "name" : "tree.003",
            "primitives" : [
                {
                    "attributes" : {
                        "POSITION" : 8,
                        "NORMAL" : 9,
                        "TEXCOORD_0" : 10
                    },
                    "indices" : 3,
                    "material" : 2
                }
            ]
        },
        {
            "name" : "tree.002",
            "primitives" : [
                {
                    "attributes" : {
                        "POSITION" : 11,
                        "NORMAL" : 12,
                        "TEXCOORD_0" : 13
                    },
                    "indices" : 14,
                    "material" : 3
                }
            ]
        }
    ],
    "accessors" : [
        {
            "bufferView" : 0,
            "componentType" : 5126,
            "count" : 10155,
            "max" : [
                4.551905632019043,
                8.071940422058105,
                3.1536037921905518
            ],
            "min" : [
                -2.7069480419158936,
                -0.8905037045478821,
                -4.9752349853515625
            ],
            "type" : "VEC3"
        },
        {
            "bufferView" : 1,
            "componentType" : 5126,
            "count" : 10155,
            "type" : "VEC3"
        },
        {
            "bufferView" : 2,
            "componentType" : 5126,
            "count" : 10155,
            "type" : "VEC2"
        },
        {
            "bufferView" : 3,
            "componentType" : 5123,
            "count" : 43038,
            "type" : "SCALAR"
        },
        {
            "bufferView" : 4,
            "componentType" : 5126,
            "count" : 4321,
            "max" : [
                4.551905632019043,
                8.075350761413574,
                3.1536037921905518
            ],
            "min" : [
                -2.7069480419158936,
                -0.8907541632652283,
                -4.9752349853515625
            ],
            "type" : "VEC3"
        },
        {
            "bufferView" : 5,
            "componentType" : 5126,
            "count" : 4321,
            "type" : "VEC3"
        },
        {
            "bufferView" : 6,
            "componentType" : 5126,
            "count" : 4321,
            "type" : "VEC2"
        },
        {
            "bufferView" : 7,
            "componentType" : 5123,
            "count" : 14142,
            "type" : "SCALAR"
        },
        {
            "bufferView" : 8,
            "componentType" : 5126,
            "count" : 10155,
            "max" : [
                4.551905632019043,
                8.071940422058105,
                3.1536037921905518
            ],
            "min" : [
                -2.7069480419158936,
                -0.8905037045478821,
                -4.9752349853515625
            ],
            "type" : "VEC3"
        },
        {
            "bufferView" : 9,
            "componentType" : 5126,
            "count" : 10155,
            "type" : "VEC3"
        },
        {
            "bufferView" : 10,
            "componentType" : 5126,
            "count" : 10155,
            "type" : "VEC2"
        },
        {
            "bufferView" : 11,
            "componentType" : 5126,
            "count" : 13906,
            "max" : [
                4.551905632019043,
                8.071940422058105,
                3.15409517288208
            ],
            "min" : [
                -2.7069480419158936,
                -0.8905037045478821,
                -4.9752349853515625
            ],
            "type" : "VEC3"
        },
        {
            "bufferView" : 12,
            "componentType" : 5126,
            "count" : 13906,
            "type" : "VEC3"
        },
        {
            "bufferView" : 13,
            "componentType" : 5126,
            "count" : 13906,
            "type" : "VEC2"
        },
        {
            "bufferView" : 14,
            "componentType" : 5123,
            "count" : 62103,
            "type" : "SCALAR"
        }
    ],
    "bufferViews" : [
        {
            "buffer" : 0,
            "byteLength" : 121860,
            "byteOffset" : 0
        },
        {
            "buffer" : 0,
            "byteLength" : 121860,
            "byteOffset" : 121860
        },
        {
            "buffer" : 0,
            "byteLength" : 81240,
            "byteOffset" : 243720
        },
        {
            "buffer" : 0,
            "byteLength" : 86076,
            "byteOffset" : 324960
        },
        {
            "buffer" : 0,
            "byteLength" : 51852,
            "byteOffset" : 411036
        },
        {
            "buffer" : 0,
            "byteLength" : 51852,
            "byteOffset" : 462888
        },
        {
            "buffer" : 0,
            "byteLength" : 34568,
            "byteOffset" : 514740
        },
        {
            "buffer" : 0,
            "byteLength" : 28284,
            "byteOffset" : 549308
        },
        {
            "buffer" : 0,
            "byteLength" : 121860,
            "byteOffset" : 577592
        },
        {
            "buffer" : 0,
            "byteLength" : 121860,
            "byteOffset" : 699452
        },
        {
            "buffer" : 0,
            "byteLength" : 81240,
            "byteOffset" : 821312
        },
        {
            "buffer" : 0,
            "byteLength" : 166872,
            "byteOffset" : 902552
        },
        {
            "buffer" : 0,
            "byteLength" : 166872,
            "byteOffset" : 1069424
        },
        {
            "buffer" : 0,
            "byteLength" : 111248,
            "byteOffset" : 1236296
        },
        {
            "buffer" : 0,
            "byteLength" : 124206,
            "byteOffset" : 1347544
        }
    ],
    "buffers" : [
        {
            "byteLength" : 1471752,
            "uri" : "data:application/octet-stream;base64,"
        }
    ]
}
